<svg xmlns="http://www.w3.org/2000/svg" xmlns:xlink="http://www.w3.org/1999/xlink" version="1.1" id="Ebene_1" x="0px" y="0px" style="enable-background:new 0 0 110.63 96;" xml:space="preserve" viewBox="6.7 10.71 96.13 74.26">
<style type="text/css">
	.st0{fill:#052A38;}
	.st1{fill:#03313F;}
	.st2{fill:#E5680E;}
	.st3{fill:#09445A;}
</style>
<path class="st0" d="M80.52,58.64c0,1.97-0.45,3.83-1.25,5.49c0,0,0,0.01-0.01,0.01c-0.16,0.31-0.32,0.61-0.48,0.91  c-1.72,3.13-3.91,6.08-6.57,8.73c-4.58,4.56-10.02,7.73-15.8,9.5c-8.01,2.46-16.67,2.24-24.57-0.66c-5.09-1.86-9.86-4.85-13.94-8.94  C2.93,58.66,2.97,34.34,18,19.37c2.91-2.9,6.16-5.23,9.64-7.01c0,0,0,0,0.01,0c0.53-0.27,1.06-0.53,1.6-0.77  c0.02-0.01,0.04-0.01,0.05-0.02c1.43-0.56,2.98-0.86,4.6-0.86c6.93,0.01,12.53,5.64,12.52,12.57c0,1.43-0.25,2.8-0.69,4.08  c-0.5,1.44-1.25,2.76-2.21,3.91c-0.5,0.61-1.06,1.16-1.66,1.66l-6.12,6.1c-0.39,0.39-0.75,0.8-1.07,1.23  c-1.62,2.13-2.44,4.67-2.44,7.22c-0.01,3.06,1.16,6.13,3.49,8.47c4.66,4.68,12.24,4.69,16.92,0.03l5.54-5.52  c0.5-0.59,1.04-1.13,1.63-1.62l-0.08,0.08c0.02-0.02,0.05-0.05,0.08-0.07c2.2-1.84,5.02-2.93,8.11-2.93  C74.88,45.93,80.54,51.62,80.52,58.64z"/>
<path class="st1" d="M80.52,58.64c0,1.97-0.45,3.83-1.25,5.49c0,0,0,0.01-0.01,0.01c-0.15,0.31-0.31,0.62-0.49,0.91  c-2.21,3.76-6.28,6.27-10.94,6.26c-6.99-0.01-12.65-5.71-12.64-12.72c0.01-3.09,1.11-5.92,2.95-8.12c0.03-0.04,0.06-0.07,0.1-0.11  c0.44-0.52,0.93-1.01,1.45-1.45c0.02-0.02,0.05-0.05,0.08-0.07c2.2-1.83,5.02-2.93,8.1-2.93C74.88,45.93,80.54,51.62,80.52,58.64z"/>
<path class="st0" d="M102.83,23.25c0,3.47-1.4,6.6-3.67,8.87c-2.27,2.28-5.4,3.68-8.87,3.68H68.22c3.03,0,5.81-1.08,7.98-2.87  c0.61-0.5,1.16-1.05,1.66-1.66c2.14-2.56,3.27-6,2.79-9.69c-0.75-5.76-5.54-10.32-11.32-10.82c-0.37-0.03-0.75-0.05-1.11-0.05h22.07  C97.22,10.71,102.83,16.33,102.83,23.25z"/>
<path class="st2" d="M77.86,31.27c-0.5,0.61-1.05,1.16-1.66,1.66c-2.17,1.79-4.95,2.87-7.98,2.87c-0.31,0-0.63-0.01-0.95-0.04  c-0.26-0.02-0.53-0.04-0.79-0.08c-0.14-0.02-0.29-0.04-0.43-0.07c-0.05,0-0.1-0.01-0.15-0.02c-0.15-0.03-0.31-0.06-0.46-0.1  c-1.33-0.29-2.58-0.81-3.72-1.51c-0.18-0.1-0.35-0.21-0.51-0.32c-0.5-0.34-0.97-0.71-1.42-1.12c-0.15-0.14-0.3-0.28-0.44-0.42  c-0.39-0.39-0.75-0.81-1.09-1.25c-0.1-0.13-0.21-0.27-0.3-0.41c-0.12-0.17-0.24-0.34-0.35-0.52c-0.07-0.11-0.14-0.22-0.21-0.34  c-0.34-0.58-0.64-1.2-0.89-1.84c-0.05-0.12-0.09-0.24-0.13-0.36c-0.06-0.14-0.1-0.28-0.14-0.42c-0.07-0.19-0.12-0.39-0.17-0.59  c-0.01-0.04-0.02-0.07-0.03-0.11c-0.09-0.37-0.17-0.74-0.22-1.12c-0.02-0.14-0.04-0.28-0.06-0.43c-0.03-0.25-0.05-0.49-0.06-0.74  c-0.03-0.54-0.03-1.07,0.01-1.6c0.02-0.29,0.05-0.57,0.09-0.85c0.07-0.56,0.19-1.11,0.34-1.65c0.07-0.27,0.15-0.53,0.24-0.79  c0.09-0.25,0.18-0.49,0.28-0.73c0.01-0.02,0.02-0.03,0.02-0.04c0.1-0.22,0.2-0.44,0.31-0.66c0.37-0.76,0.83-1.48,1.35-2.14  c0.16-0.21,0.33-0.41,0.51-0.61c0.37-0.42,0.78-0.83,1.22-1.2c0.17-0.15,0.35-0.29,0.53-0.43c0.35-0.28,0.73-0.53,1.12-0.76  c0.09-0.06,0.18-0.12,0.27-0.17c0.08-0.05,0.17-0.09,0.25-0.13c0.47-0.25,0.68-0.35,1.13-0.54c0.07-0.04,0.15-0.07,0.22-0.1  c0.02,0,0.03-0.01,0.05-0.02c0.07-0.03,0.13-0.05,0.2-0.07c0.22-0.09,0.43-0.16,0.65-0.22c0.2-0.07,0.4-0.12,0.6-0.17  c0.2-0.06,0.4-0.11,0.6-0.14c0.21-0.05,0.41-0.08,0.62-0.11c0.21-0.04,0.42-0.06,0.63-0.08c0.02-0.01,0.04-0.01,0.07-0.01  c0.39-0.04,0.79-0.06,1.19-0.06c0.01,0,0.01,0,0.02,0c0.36,0,0.74,0.02,1.11,0.05c5.78,0.5,10.57,5.06,11.32,10.82  C81.13,25.27,80,28.71,77.86,31.27z"/>
<path class="st3" d="M80.52,58.64c0,1.97-0.45,3.83-1.25,5.49c0,0,0,0.01-0.01,0.01c-0.16,0.31-0.32,0.61-0.48,0.91  c-1.72,3.13-3.91,6.08-6.57,8.73c-4.58,4.56-10.02,7.73-15.8,9.5c-0.44,0.03-0.88,0.05-1.32,0.06c-12.6,0.24-23.81-8.64-26.17-21.01  c-1.61-8.43,0.83-16.32,5.72-22.07c-1.62,2.13-2.44,4.67-2.44,7.22c-0.01,3.06,1.16,6.13,3.49,8.47c4.66,4.68,12.24,4.69,16.92,0.03  l5.54-5.52c0.5-0.59,1.04-1.13,1.63-1.62l-0.08,0.08c0.02-0.02,0.05-0.05,0.08-0.07c2.2-1.84,5.02-2.93,8.11-2.93  C74.88,45.93,80.54,51.62,80.52,58.64z"/>
</svg>